<svg id="logos" xmlns="http://www.w3.org/2000/svg" viewBox="0 0 275 66"><defs><style>.cls-1,.cls-4{fill:#09c;}.cls-1,.cls-2,.cls-6,.cls-8{opacity:0.5;}.cls-2,.cls-3{fill:#f93;}.cls-5,.cls-6{fill:#e4528a;}.cls-7,.cls-8{fill:#390;}.cls-9{fill:#039;}.cls-10{fill:#fc0;}</style></defs><rect class="cls-1" x="6" y="42" width="66" height="6"/><rect class="cls-2" x="6" width="66" height="6"/><rect class="cls-3" x="12" width="54" height="6"/><rect class="cls-4" x="12" y="42" width="54" height="6"/><rect class="cls-5" x="66" y="6" width="6" height="36"/><rect class="cls-6" x="72" y="6" width="6" height="36"/><rect class="cls-7" x="6" y="6" width="6" height="36"/><rect class="cls-8" y="6" width="6" height="36"/><rect class="cls-4" x="24" y="42" width="12" height="12"/><rect class="cls-4" x="30" y="42" width="6" height="18"/><rect class="cls-4" x="36" y="60" width="6" height="6"/><rect class="cls-9" x="12" y="6" width="54" height="36"/><polygon class="cls-10" points="37.7 14.18 39.01 13.22 40.32 14.18 39.82 12.63 41.15 11.67 39.51 11.67 39.01 10.11 38.51 11.67 36.87 11.67 38.2 12.63 37.7 14.18"/><polygon class="cls-10" points="31.76 15.77 33.08 14.81 34.39 15.77 33.89 14.22 35.22 13.26 33.58 13.26 33.08 11.7 32.57 13.27 30.93 13.26 32.26 14.22 31.76 15.77"/><polygon class="cls-10" points="28.74 16.05 28.23 17.61 26.59 17.61 27.92 18.57 27.43 20.11 28.74 19.16 30.05 20.11 29.55 18.57 30.88 17.61 29.24 17.61 28.74 16.05"/><polygon class="cls-10" points="27.14 25.08 28.45 26.04 27.96 24.49 29.29 23.53 27.64 23.53 27.14 21.96 26.64 23.54 25 23.53 26.33 24.49 25.83 26.04 27.14 25.08"/><polygon class="cls-10" points="29.24 29.47 28.74 27.9 28.23 29.47 26.59 29.47 27.92 30.43 27.43 31.97 28.74 31.02 30.05 31.97 29.55 30.43 30.88 29.47 29.24 29.47"/><polygon class="cls-10" points="33.59 33.81 33.08 32.25 32.58 33.82 30.94 33.81 32.27 34.77 31.77 36.32 33.09 35.36 34.4 36.32 33.9 34.77 35.23 33.81 33.59 33.81"/><polygon class="cls-10" points="39.51 35.39 39.01 33.82 38.51 35.39 36.87 35.39 38.2 36.35 37.7 37.89 39.01 36.94 40.32 37.89 39.82 36.35 41.15 35.39 39.51 35.39"/><polygon class="cls-10" points="45.43 33.81 44.93 32.25 44.43 33.82 42.79 33.81 44.12 34.77 43.62 36.32 44.93 35.36 46.24 36.32 45.74 34.77 47.08 33.81 45.43 33.81"/><polygon class="cls-10" points="49.78 29.47 49.28 27.9 48.78 29.47 47.14 29.47 48.47 30.43 47.97 31.97 49.28 31.02 50.59 31.97 50.09 30.43 51.42 29.47 49.78 29.47"/><polygon class="cls-10" points="53 23.52 51.36 23.52 50.85 21.95 50.35 23.52 48.71 23.52 50.05 24.47 49.55 26.02 50.85 25.06 52.17 26.02 51.67 24.47 53 23.52"/><polygon class="cls-10" points="47.97 20.09 49.28 19.14 50.59 20.09 50.09 18.55 51.42 17.59 49.78 17.59 49.28 16.03 48.78 17.6 47.14 17.59 48.47 18.55 47.97 20.09"/><polygon class="cls-10" points="44.95 11.7 44.45 13.27 42.81 13.26 44.14 14.22 43.64 15.77 44.95 14.81 46.26 15.77 45.76 14.22 47.09 13.26 45.45 13.26 44.95 11.7"/><path class="cls-9" d="M94.46,42.17c-2.89,0-4.47-2.28-4.47-5.3s1.58-5.29,4.47-5.29,4.47,2.27,4.47,5.29S97.35,42.17,94.46,42.17Zm0-8.94c-1.6,0-2.4,1.43-2.4,3.62s.8,3.64,2.4,3.64,2.4-1.45,2.4-3.64S96.06,33.23,94.46,33.23Z"/><path class="cls-9" d="M105.83,28.77c-1.17,0-2,.49-2,1.76v1.26h2.11v1.55h-2.11V42h-2V33.34h-1.34V31.79h1.34V30.53c0-2.34,1.58-3.42,3.68-3.42a5.76,5.76,0,0,1,.64,0v1.62Z"/><path class="cls-9" d="M116.48,42.1c-1.79,0-2.79-1-2.79-3V33.34h-1.38V31.79h1.38V29.43l2-.62v3h2.05v1.55h-2.05V39a1.2,1.2,0,0,0,1.35,1.29,1.81,1.81,0,0,0,.7-.14v1.72A3.28,3.28,0,0,1,116.48,42.1Z"/><path class="cls-9" d="M125.9,42V35.21c0-1.3-.83-1.94-2.19-1.94a3.78,3.78,0,0,0-1.81.47V42h-2.06V27.15h2.06v5a5.51,5.51,0,0,1,2.28-.55c2.38,0,3.8,1.21,3.8,3.42V42Z"/><path class="cls-9" d="M139,36.83l-6.76,1a2.87,2.87,0,0,0,3.11,2.75,6.3,6.3,0,0,0,2.81-.62l.61,1.55a8.38,8.38,0,0,1-3.55.71c-3.21,0-5-2.05-5-5.3s1.73-5.29,4.58-5.29c2.65,0,4.21,1.74,4.21,4.48C139,36.3,139,36.57,139,36.83ZM134.8,33.1c-1.59,0-2.63,1.2-2.66,3.32l4.92-.68C137,34,136.16,33.1,134.8,33.1Z"/><path class="cls-9" d="M146.45,42V28.3h7.17v1.79h-5.07v4h4.62v1.76h-4.62v4.3h5.07V42Z"/><path class="cls-9" d="M159.8,42.17c-2.68,0-4.11-1.11-4.11-3.66V31.79h2.05v6.76c0,1.3.7,1.93,2.06,1.93a5,5,0,0,0,1.81-.29v-8.4h2.06v9.67A9.64,9.64,0,0,1,159.8,42.17Z"/><path class="cls-9" d="M170.81,33.38a4.15,4.15,0,0,0-1-.11,4.43,4.43,0,0,0-1.6.26V42h-2.06V32.3a10.74,10.74,0,0,1,3.94-.72,6.38,6.38,0,0,1,1.16.08Z"/><path class="cls-9" d="M176.59,42.17c-2.89,0-4.48-2.28-4.48-5.3s1.59-5.29,4.48-5.29,4.47,2.27,4.47,5.29S179.48,42.17,176.59,42.17Zm0-8.94c-1.61,0-2.4,1.43-2.4,3.62s.79,3.64,2.4,3.64S179,39,179,36.85,178.19,33.23,176.59,33.23Z"/><path class="cls-9" d="M186.84,42.08a6.24,6.24,0,0,1-1.66-.24V46h-2.06V32.3a8.33,8.33,0,0,1,3.5-.72c3.17,0,4.94,2,4.94,5.22S189.92,42.08,186.84,42.08Zm-.19-8.87a4.17,4.17,0,0,0-1.47.26v6.78a4.86,4.86,0,0,0,1.47.23c1.87,0,2.85-1.55,2.85-3.68S188.5,33.21,186.65,33.21Z"/><path class="cls-9" d="M202,36.83l-6.76,1a2.88,2.88,0,0,0,3.12,2.75,6.33,6.33,0,0,0,2.81-.62l.61,1.55a8.45,8.45,0,0,1-3.55.71c-3.21,0-5-2.05-5-5.3s1.74-5.29,4.59-5.29c2.64,0,4.21,1.74,4.21,4.48C202.06,36.3,202.06,36.57,202,36.83Zm-4.23-3.73c-1.58,0-2.62,1.2-2.66,3.32l4.93-.68C200.06,34,199.17,33.1,197.81,33.1Z"/><path class="cls-9" d="M207.9,42.17c-2.93,0-4.4-1.18-4.4-3.19,0-2.83,3-3.34,6.1-3.51v-.64c0-1.28-.85-1.73-2.15-1.73a7.46,7.46,0,0,0-2.82.62l-.53-1.42a9.51,9.51,0,0,1,3.55-.72c2.44,0,3.91,1,3.91,3.46v6.42A9,9,0,0,1,207.9,42.17Zm1.7-5.32c-2.08.11-4.15.28-4.15,2.1,0,1.07.83,1.73,2.39,1.73a5.27,5.27,0,0,0,1.76-.26Z"/><path class="cls-9" d="M220.06,42v-6.8c0-1.19-.72-1.92-2.13-1.92a5.31,5.31,0,0,0-1.87.3V42H214V32.3a10.41,10.41,0,0,1,3.91-.72c2.85,0,4.23,1.25,4.23,3.4v7Z"/><path class="cls-9" d="M234.26,42.16c-2.57,0-4.55-1.53-4.55-4.18V28.3h2.13V38a2.42,2.42,0,0,0,4.84,0V28.3h2.13V38C238.81,40.63,236.83,42.16,234.26,42.16Z"/><path class="cls-9" d="M247.63,42v-6.8c0-1.19-.72-1.92-2.13-1.92a5.31,5.31,0,0,0-1.87.3V42h-2.06V32.3a10.41,10.41,0,0,1,3.91-.72c2.85,0,4.23,1.25,4.23,3.4v7Z"/><path class="cls-9" d="M253.05,29.94a1.17,1.17,0,1,1,1.23-1.17A1.2,1.2,0,0,1,253.05,29.94Zm-1,12V31.79h2.08V42Z"/><path class="cls-9" d="M260.49,42.17c-2.89,0-4.47-2.28-4.47-5.3s1.58-5.29,4.47-5.29S265,33.85,265,36.87,263.38,42.17,260.49,42.17Zm0-8.94c-1.6,0-2.4,1.43-2.4,3.62s.8,3.64,2.4,3.64,2.4-1.45,2.4-3.64S262.1,33.23,260.49,33.23Z"/><path class="cls-9" d="M272.9,42v-6.8c0-1.19-.72-1.92-2.13-1.92a5.31,5.31,0,0,0-1.87.3V42h-2.06V32.3a10.41,10.41,0,0,1,3.91-.72c2.85,0,4.22,1.25,4.22,3.4v7Z"/><path class="cls-9" d="M93.9,15.46a10.83,10.83,0,0,1-1.43-.11v5.51h-2.1V7.7A9.26,9.26,0,0,1,94.15,7c3.26,0,5.06,1.66,5.06,4.27C99.21,13.68,97.36,15.46,93.9,15.46Zm.27-6.84a5,5,0,0,0-1.7.29V13.7a8.42,8.42,0,0,0,1.36.1c2.13,0,3.28-1,3.28-2.57S96.07,8.62,94.17,8.62Z"/><path class="cls-9" d="M105.42,21.06c-2.68,0-4.12-1.11-4.12-3.66V10.68h2.06v6.76c0,1.3.7,1.92,2.06,1.92a5,5,0,0,0,1.81-.28v-8.4h2.06v9.67A9.64,9.64,0,0,1,105.42,21.06Z"/><path class="cls-9" d="M115.35,21.06a8.28,8.28,0,0,1-3.41-.71V6h2V11a5.17,5.17,0,0,1,2-.42c2.62,0,4.39,1.89,4.39,5C120.37,19.36,118.39,21.06,115.35,21.06Zm.27-8.92a4,4,0,0,0-1.63.33v6.69a4.23,4.23,0,0,0,1.48.26c1.64,0,2.85-1.13,2.85-3.74C118.32,13.46,117.26,12.14,115.62,12.14Z"/><path class="cls-9" d="M122.72,20.86V6h2.08V20.86Z"/><path class="cls-9" d="M128.59,8.83a1.17,1.17,0,1,1,1.23-1.17A1.2,1.2,0,0,1,128.59,8.83Zm-1,12V10.68h2.08V20.86Z"/><path class="cls-9" d="M136.43,21.06c-2.27,0-4.48-1.62-4.48-5.3s2.21-5.29,4.48-5.29a4.67,4.67,0,0,1,2.6.7l-.68,1.49a2.91,2.91,0,0,0-1.66-.49c-1.36,0-2.6,1.08-2.6,3.57s1.28,3.59,2.6,3.59a2.91,2.91,0,0,0,1.66-.49l.68,1.53A4.56,4.56,0,0,1,136.43,21.06Z"/><path class="cls-9" d="M145,21.06c-2.92,0-4.4-1.18-4.4-3.19,0-2.83,3-3.34,6.1-3.51v-.64c0-1.28-.85-1.74-2.15-1.74a7.45,7.45,0,0,0-2.81.63l-.53-1.42a9.46,9.46,0,0,1,3.55-.72c2.43,0,3.9.95,3.9,3.46v6.42A8.9,8.9,0,0,1,145,21.06Zm1.7-5.32c-2.08.11-4.15.28-4.15,2.1,0,1.07.83,1.73,2.4,1.73a5.21,5.21,0,0,0,1.75-.26Z"/><path class="cls-9" d="M154.67,21c-1.79,0-2.79-1-2.79-3V12.23H150.5V10.68h1.38V8.32l2-.62v3h2v1.55h-2v5.66a1.2,1.2,0,0,0,1.36,1.29A1.8,1.8,0,0,0,156,19v1.72A3.28,3.28,0,0,1,154.67,21Z"/><path class="cls-9" d="M159.13,8.83a1.17,1.17,0,1,1,1.23-1.17A1.2,1.2,0,0,1,159.13,8.83Zm-1,12V10.68h2.08V20.86Z"/><path class="cls-9" d="M167,21.06c-2.89,0-4.48-2.28-4.48-5.3s1.59-5.29,4.48-5.29,4.47,2.27,4.47,5.29S169.85,21.06,167,21.06Zm0-8.94c-1.61,0-2.4,1.43-2.4,3.62s.79,3.64,2.4,3.64,2.39-1.45,2.39-3.64S168.57,12.12,167,12.12Z"/><path class="cls-9" d="M179.77,20.86v-6.8c0-1.19-.72-1.92-2.13-1.92a5.31,5.31,0,0,0-1.87.3v8.42h-2.06V11.19a10.41,10.41,0,0,1,3.91-.72c2.85,0,4.22,1.25,4.22,3.4v7Z"/><path class="cls-9" d="M187.08,21.06a7.35,7.35,0,0,1-3.17-.71l.69-1.59a5.7,5.7,0,0,0,2.42.66c1.11,0,1.85-.55,1.85-1.4s-.77-1.28-1.81-1.66c-1.36-.51-2.89-1.13-2.89-3,0-1.68,1.3-2.85,3.57-2.85a6,6,0,0,1,3,.72l-.64,1.44A4.48,4.48,0,0,0,188,12c-1.07,0-1.68.57-1.68,1.3,0,.93.76,1.25,1.76,1.63,1.42.53,3,1.11,3,3.09S189.63,21.06,187.08,21.06Z"/><path class="cls-9" d="M203.24,21.06c-3.53,0-5.26-3.11-5.26-7s1.73-7,5.26-7,5.27,3.12,5.27,7S206.77,21.06,203.24,21.06Zm0-12.19c-2.06,0-3.13,2.17-3.13,5.15s1.07,5.16,3.13,5.16S206.37,17,206.37,14,205.3,8.87,203.24,8.87Z"/><path class="cls-9" d="M213.59,20.86h-2V12.23h-1.34V10.68h1.34V9.42c0-2.34,1.59-3.42,3.68-3.42a5.76,5.76,0,0,1,.64,0V7.66h-.28c-1.17,0-2,.49-2,1.76v1.26h4.27V9.42c0-2.34,1.58-3.42,3.68-3.42a5.76,5.76,0,0,1,.64,0V7.66h-.28c-1.17,0-2,.49-2,1.76v1.26H226V20.86H224V12.25h-4.07v8.61h-2V12.23h-4.27ZM224.78,9a1.18,1.18,0,0,1-1.22-1.16A1.23,1.23,0,1,1,224.78,9Z"/><path class="cls-9" d="M233.23,21.06c-2.27,0-4.47-1.62-4.47-5.3s2.2-5.29,4.47-5.29a4.67,4.67,0,0,1,2.6.7l-.67,1.49a3,3,0,0,0-1.67-.49c-1.35,0-2.6,1.08-2.6,3.57s1.28,3.59,2.6,3.59a3,3,0,0,0,1.67-.49l.67,1.53A4.56,4.56,0,0,1,233.23,21.06Z"/><path class="cls-9" d="M245.92,15.72l-6.76,1a2.88,2.88,0,0,0,3.12,2.75,6.37,6.37,0,0,0,2.81-.62l.6,1.55a8.38,8.38,0,0,1-3.55.71c-3.21,0-5-2-5-5.3s1.74-5.29,4.59-5.29c2.64,0,4.21,1.74,4.21,4.48C245.94,15.19,245.94,15.46,245.92,15.72ZM241.69,12c-1.59,0-2.62,1.21-2.66,3.33l4.92-.68C243.94,12.85,243.05,12,241.69,12Z"/></svg>