<?xml version="1.0" encoding="utf-8"?>
<!-- Generator: Adobe Illustrator 22.1.0, SVG Export Plug-In . SVG Version: 6.00 Build 0)  -->
<svg version="1.1" id="Layer_1" xmlns="http://www.w3.org/2000/svg" xmlns:xlink="http://www.w3.org/1999/xlink" x="0px" y="0px"
	 viewBox="0 0 110.7 93.8" style="enable-background:new 0 0 110.7 93.8;" xml:space="preserve">
<style type="text/css">
	.Arched_x0020_Green{fill:url(#SVGID_1_);stroke:#FFFFFF;stroke-width:0.25;stroke-miterlimit:1;}
	.st0{opacity:0.5;fill:#339900;}
	.st1{opacity:0.5;fill:#6699CC;}
	.st2{fill:#6699CC;}
	.st3{fill:#007D64;}
	.st4{opacity:0.5;fill:#007D64;}
	.st5{fill:#339900;}
	.st6{fill:#003399;}
	.st7{fill:#FFCC00;}
</style>
<linearGradient id="SVGID_1_" gradientUnits="userSpaceOnUse" x1="-179.4258" y1="474.4985" x2="-178.7187" y2="473.7914">
	<stop  offset="0" style="stop-color:#249E2E"/>
	<stop  offset="0.9831" style="stop-color:#1C371D"/>
</linearGradient>
<rect x="8.7" y="59.7" class="st0" width="93.5" height="8.5"/>
<rect x="8.7" y="0.2" class="st1" width="93.5" height="8.5"/>
<rect x="17.2" y="0.2" class="st2" width="76.5" height="8.5"/>
<rect x="93.7" y="8.7" class="st3" width="8.5" height="51"/>
<rect x="102.2" y="8.7" class="st4" width="8.5" height="51"/>
<rect x="8.7" y="8.7" class="st2" width="8.5" height="51"/>
<rect x="0.2" y="8.7" class="st1" width="8.5" height="51"/>
<g>
	<polygon class="st5" points="51.2,68.2 93.7,68.2 93.7,59.7 17.2,59.7 17.2,68.2 34.2,68.2 34.2,76.7 42.7,76.7 42.7,85.2 
		51.2,85.2 	"/>
	<rect x="51.2" y="85.2" class="st5" width="8.5" height="8.5"/>
</g>
<g>
	<rect x="17.2" y="8.7" class="st6" width="76.5" height="51"/>
	<g>
		<polygon class="st7" points="53.6,20.3 55.5,18.9 57.3,20.3 56.6,18.1 58.5,16.7 56.2,16.7 55.5,14.5 54.8,16.7 52.4,16.7 
			54.3,18.1 		"/>
		<polygon class="st7" points="45.2,22.5 47.1,21.2 48.9,22.5 48.2,20.3 50.1,19 47.8,19 47.1,16.8 46.4,19 44,19 45.9,20.3 		"/>
		<polygon class="st7" points="40.9,22.9 40.2,25.1 37.9,25.1 39.8,26.5 39.1,28.7 40.9,27.3 42.8,28.7 42.1,26.5 44,25.1 
			41.6,25.1 		"/>
		<polygon class="st7" points="38.7,35.7 40.5,37.1 39.8,34.9 41.7,33.5 39.4,33.5 38.7,31.3 37.9,33.5 35.6,33.5 37.5,34.9 
			36.8,37.1 		"/>
		<polygon class="st7" points="41.6,41.9 40.9,39.7 40.2,41.9 37.9,41.9 39.8,43.3 39.1,45.5 40.9,44.1 42.8,45.5 42.1,43.3 
			44,41.9 		"/>
		<polygon class="st7" points="47.8,48.1 47.1,45.9 46.4,48.1 44,48.1 45.9,49.5 45.2,51.6 47.1,50.3 48.9,51.6 48.2,49.5 
			50.1,48.1 		"/>
		<polygon class="st7" points="56.2,50.3 55.5,48.1 54.8,50.3 52.4,50.3 54.3,51.7 53.6,53.9 55.5,52.5 57.3,53.9 56.6,51.7 
			58.5,50.3 		"/>
		<polygon class="st7" points="64.6,48.1 63.9,45.9 63.2,48.1 60.8,48.1 62.7,49.5 62,51.6 63.9,50.3 65.7,51.6 65,49.5 66.9,48.1 
					"/>
		<polygon class="st7" points="70.7,41.9 70,39.7 69.3,41.9 67,41.9 68.9,43.3 68.2,45.5 70,44.1 71.9,45.5 71.2,43.3 73.1,41.9 		
			"/>
		<polygon class="st7" points="75.3,33.5 73,33.5 72.3,31.3 71.6,33.5 69.2,33.5 71.1,34.9 70.4,37 72.3,35.7 74.1,37 73.4,34.9 		
			"/>
		<polygon class="st7" points="68.2,28.7 70,27.3 71.9,28.7 71.2,26.5 73.1,25.1 70.7,25.1 70,22.9 69.3,25.1 67,25.1 68.9,26.5 		
			"/>
		<polygon class="st7" points="63.9,16.8 63.2,19 60.9,19 62.7,20.3 62,22.5 63.9,21.2 65.8,22.5 65,20.3 66.9,19 64.6,19 		"/>
	</g>
</g>
</svg>
